<?xml version="1.0" encoding="UTF-8"?>
<svg width="146px" height="146px" viewBox="0 0 146 146" version="1.1" xmlns="http://www.w3.org/2000/svg" xmlns:xlink="http://www.w3.org/1999/xlink">
    <title>Group</title>
    <defs>
        <circle id="path-1" cx="73" cy="73" r="73"></circle>
    </defs>
    <g id="Login" stroke="none" stroke-width="1" fill="none" fill-rule="evenodd">
        <g id="login-screen" transform="translate(-134.000000, -138.000000)">
            <g id="Group" transform="translate(134.000000, 138.000000)">
                <g id="saudi-man2">
                    <mask id="mask-2" fill="white">
                        <use xlink:href="#path-1"></use>
                    </mask>
                    <use id="Mask" fill="#007580" xlink:href="#path-1"></use>
                </g>
                <path d="M118.407747,26.7924832 C117.640262,26.0248468 116.856844,25.2784598 116.057491,24.5559785 C108.879251,18.0669274 100.213843,13.1715851 90.6348887,10.4516554 C88.7865516,9.92041913 86.8983796,9.47418066 84.9889624,9.11294 C81.1063922,8.38249012 77.0936949,8 72.9986722,8 C68.8691259,8 64.8245607,8.38780248 60.9101226,9.13684563 L60.9021556,9.13684563 C58.9980498,9.49543011 57.1258117,9.94166858 55.2880973,10.4702487 C45.7277329,13.2061155 37.0809145,18.0988016 29.9186083,24.5825403 C29.1192556,25.3023655 28.3331812,26.0514086 27.568352,26.8110765 C16.0959149,38.2937486 9,54.0900592 9,71.4960157 C9,90.6205216 17.5618374,107.79539 31.0897529,119.448058 C32.4866284,120.661933 33.9392726,121.806747 35.4476856,122.890469 C45.0983423,129.854977 56.783232,134.208458 69.4347808,134.896409 C70.5156331,134.96547 71.6097637,134.994688 72.7038943,135 L72.9986722,135 C74.0423453,135 75.0807071,134.976094 76.1111019,134.925627 C88.6511131,134.322674 100.253677,130.13122 109.8884,123.363269 C111.383535,122.316734 112.825557,121.209106 114.217121,120.043043 C128.140729,108.385063 137,90.9445757 137,71.4960157 C137,54.0767783 129.898774,38.2751553 118.407747,26.7924832 L118.407747,26.7924832 Z M74.0241287,14 C76.0348525,14 78.0160858,14.111336 79.9731903,14.3173077 C91.7292225,15.5642713 102.434316,20.4574899 111,27.8780364 C110.941019,27.9114372 110.876676,27.9504049 110.817694,27.9838057 C106.806971,30.3357794 102.994638,33.0189777 99.3941019,36 C93.080429,27.9949393 85.5227882,21.1533401 77.0348525,15.8259109 C76.1876676,15.2887146 75.3270777,14.7682186 74.4557641,14.2727733 C74.30563,14.1753543 74.155496,14.0890688 74,14 L74.0241287,14 Z M93.4445089,32.6148577 C94.67146,33.951204 95.8610692,35.3143846 97,36.7124497 C90.8785805,41.9907492 85.4853299,48.1545795 80.9642816,55 C80.5721907,54.981216 80.1774324,54.9677989 79.780007,54.9677989 L70.399165,54.9677989 L67.6065175,54.9677989 C67.4171402,54.9677989 67.2250957,54.9785326 67.0357184,54.981216 C62.5280065,48.1250618 57.1374232,41.945131 51,36.6560977 C52.6217094,34.6784125 54.3367737,32.7704964 56.1345239,30.9216157 C61.5517801,25.3991244 67.5665082,20.732646 74.018671,17 C81.1136495,21.116376 87.6565001,26.3490573 93.4445089,32.6148577 L93.4445089,32.6148577 Z M68.0508327,14.3321492 C70.0069813,14.1172291 74,14 74,14 C73.8439386,14.0893174 73.6932587,14.1758437 73.5371973,14.2735346 C72.6680969,14.7703629 71.8070686,15.2839381 70.9541124,15.8226338 C62.4487674,21.1453946 54.8421206,27.9837605 48.4812741,36 C44.9268417,33.0525247 41.1571522,30.39254 37.1856592,28.0591221 C37.1264635,28.0228368 37.0591957,27.9837605 37,27.9502664 C45.5779943,20.511799 56.284343,15.6049226 68.0508327,14.3321492 L68.0508327,14.3321492 Z M27.2868369,104 C20.621361,95.2700606 16.5063404,84.5948914 16.053581,72.9969178 C16.0267905,72.6062989 16.0133952,72.2104368 16.0133952,71.8067099 C16,71.4842527 16,71.1565522 16,70.8288518 L16,70.5902859 C16,54.5958834 22.93606,40.1718213 34.0567959,30 C34.1130559,30.0340808 34.1666369,30.0681617 34.2228969,30.0969993 C38.3352384,32.3096326 42.2787998,34.8840472 46,37.8123782 C34.6140382,52.3203316 27.6592249,70.5902859 27.2734417,90.5354448 C27.2493302,91.8331385 27.2546883,98.7961172 27.2868369,104 L27.2868369,104 Z M30.0156712,91.4929459 C30.3852739,72.551334 36.7962513,54.6235508 48.2729605,40 C50.6590725,42.0117335 52.9500661,44.1720911 55.1296353,46.4678028 C57.934268,49.4137449 60.6763944,52.7869814 63,56.0460958 C50.0367267,57.9038972 40.1036524,68.3925129 40.1036524,81.0521022 L40.2667125,96.957536 L30.0020828,97 C29.9966475,94.335382 30.0020828,92.1644084 30.0156712,91.4929459 L30.0156712,91.4929459 Z M62.7735677,119.603265 C62.6262504,119.918382 62.4325553,120.188077 62.1897545,120.395316 C61.9387693,120.599716 61.6605032,120.750177 61.3440436,120.849539 C61.0357684,120.951739 60.7029403,121 60.3619279,121 C59.9718096,121 59.5926038,120.943222 59.2106699,120.841022 C58.828736,120.741661 58.471355,120.605394 58.1303425,120.440738 C57.6993028,120.605394 57.238254,120.741661 56.7499242,120.841022 C56.2561382,120.943222 55.7950894,121 55.3613216,121 L54.2264323,121 L54,120.849539 L54,119.41022 L54.2264323,119.265436 L55.9778721,119.265436 C56.1661109,119.265436 56.3461655,119.251242 56.5153077,119.234209 C56.3625341,119.015614 56.2479539,118.788502 56.1742952,118.547197 C56.1088209,118.294535 56.0760837,118.027679 56.0760837,117.71824 C56.0760837,117.391767 56.1361018,117.068133 56.2315853,116.77005 C56.3352531,116.474805 56.4825705,116.210788 56.6708093,115.983676 C56.8563201,115.750887 57.0745681,115.560681 57.3364656,115.427253 C57.595635,115.285309 57.8793574,115.220014 58.1876326,115.220014 C58.4877236,115.220014 58.7714459,115.285309 59.0333434,115.427253 C59.2897848,115.560681 59.5189451,115.750887 59.6962716,115.983676 C59.8845105,116.210788 60.0290997,116.474805 60.1354956,116.77005 C60.2391634,117.068133 60.2909973,117.391767 60.2909973,117.71824 C60.2909973,118.033357 60.2582601,118.311568 60.1764171,118.56423 C60.1027584,118.814053 59.9799939,119.049681 59.8108518,119.265436 C59.8845105,119.276792 59.9636253,119.276792 60.0454683,119.276792 L60.2909973,119.276792 C60.5883601,119.276792 60.831161,119.251242 61.0275841,119.208659 C61.2212792,119.160397 61.3685965,119.097942 61.4831767,119.032647 C61.5868445,118.973031 61.6686875,118.899219 61.709609,118.822569 C61.7505305,118.745919 61.7750834,118.672108 61.7750834,118.612491 C61.7750834,118.322924 61.709609,117.985096 61.5977569,117.607523 C61.4749924,117.22995 61.2812974,116.843861 61.0030312,116.46061 C60.7274932,116.068843 60.3701122,115.69127 59.9308881,115.327892 C59.4862079,114.975869 58.9433162,114.674947 58.2858442,114.442158 L58.910579,113 C59.5816914,113.275373 60.1764171,113.613201 60.6865717,114.013485 C61.2076387,114.419446 61.627766,114.862314 61.9687784,115.336409 C62.3097908,115.824698 62.5689603,116.327182 62.7408306,116.852378 C62.9099727,117.380412 63,117.908446 63,118.427963 C63,118.887864 62.9263413,119.276792 62.7735677,119.603265 L62.7735677,119.603265 Z M67.865,120 L66.473,120 C66.455,119.28662 66.41,118.567533 66.338,117.837032 C66.266,117.097971 66.179,116.373177 66.053,115.648383 C65.93,114.923589 65.777,114.21877 65.609,113.508244 C65.429,112.809131 65.243,112.144261 65.036,111.505073 L66.785,111 C66.962,111.496512 67.124,112.044388 67.274,112.63792 C67.421,113.240013 67.544,113.864933 67.64,114.501268 C67.742,115.140457 67.823,115.793912 67.874,116.447368 C67.928,117.097971 67.964,117.725745 67.964,118.322131 C67.964,118.92993 67.928,119.486367 67.865,120 L67.865,120 Z M67.7783054,94.5900269 C66.356229,96.1551275 63.4166182,99.019603 62.5183359,100.045939 C61.6249488,101.06496 58,100.999138 58,100.999138 C58,100.999138 60.9640871,98.5710384 62.6088984,97.3716154 C64.2757384,96.147814 67.2643019,92.5397938 68.4611958,91.2526082 C69.6678803,89.9629848 71.7312374,87.4105542 72.3260129,86.6767609 C72.9207884,85.9502812 74.7956775,84 74.7956775,84 C74.7956775,84 75.8603992,85.9502812 73.1288375,89.187748 C72.0127155,90.5090635 69.1979342,93.0224884 67.7783054,94.5900269 L67.7783054,94.5900269 Z M64.3956466,88.3203393 C64.8934128,87.9397588 64.8680166,87.2303774 64.8832543,86.5727757 C64.9188091,85.4129112 64.250888,84.3617841 65.3124507,83.453051 C66.0159265,82.84464 67.463512,82.2750637 68.3117463,82.8187501 C70.3409055,84.1365425 67.3263723,87.2044875 66.4095681,88.2504367 C65.2946734,89.5190385 63.9943861,90.6090004 62.5696572,91.4581868 C61.713804,91.9604496 59.4433805,93.6251657 58.4834027,92.7500894 C58.3386442,92.6180513 58.2776932,92.4186996 58.2269008,92.2271148 C57.4472363,89.0659664 58.785618,86.4226146 60.5836715,83.9630807 C61.6528531,82.5003052 62.8617139,81.146267 64.1823182,79.919089 C64.3778692,79.7352712 65.0229336,79.0233008 65.2946734,79 C65.3226092,79 65.2692771,79.0854364 65.2083262,79.1812288 C65.1499148,79.2666653 65.081345,79.3572797 65.0737261,79.3805805 C64.5226278,80.3281483 60.6166866,87.2044875 60.5658941,88.4497884 C60.5151017,89.7934707 63.5905859,88.9365173 64.3956466,88.3203393 L64.3956466,88.3203393 Z M72.7440548,96.1204267 C72.8173113,96.0676393 72.9036493,96.043885 72.9926036,96.0359669 L78.5862587,95.4579446 C81.0141876,95.2098437 81.7833806,91.9713355 80.7394759,91.0792281 C79.6903385,90.1950388 78.6935272,89.9126261 78.5522468,88.1363294 C78.4816066,87.315485 79.7609787,84.0373862 82.6990866,85.5523852 C84.3499736,86.3969839 86.0270236,86.262376 86.0270236,86.262376 L86.0374888,85.6210088 L85.7810911,82.7942425 C83.8921206,83.1637544 84.3866018,81.8493476 84.5880571,81.2211773 C84.7999776,80.593007 85.5063794,80.7698449 87.2017435,80.0202635 C88.727048,79.3393058 89.2921693,79.0304994 89.6192072,79.0304994 C89.6113583,78.9618758 89.6898473,79.0304994 89.6192072,79.0304994 L89.9985711,81.9285288 C90.0168852,82.1687115 89.8572907,82.3983368 89.6270561,82.4484849 C89.3549606,82.5118298 89.0540858,82.5355841 88.8003044,82.6437983 C88.3738471,82.8127181 88.4968133,82.9789984 88.5072785,83.4488065 C88.5334416,84.3673076 88.4628014,85.2937268 88.2875091,86.2016705 C88.1985548,86.6899541 88.0651234,87.1835165 87.7747138,87.5794221 C87.1572663,88.4187421 86.0531866,88.5850225 85.3284708,89.2844558 C84.5802082,90.0076435 83.8659576,90.8047335 83.2014167,91.6097417 C82.7618778,92.1376159 82.3720487,93.8162558 82.2412336,94.4972136 C81.7729154,96.9175168 75.9568745,98.9920624 73.1129535,99 C68.9582649,99.0078986 72.1004444,96.5981529 72.7440548,96.1204267 L72.7440548,96.1204267 Z M80.1217625,78.4040097 C82.7605422,76.8962123 83.0810067,76.5734648 82.9857335,77.5786631 L82.9366533,78.0911171 C82.9077826,78.3793725 82.7316715,78.6429907 82.4574001,78.8055963 C82.0387753,79.0741419 81.4065075,79.5841322 80.9590121,80.4907816 C80.2372452,81.9640869 77.4800957,79.921662 80.1217625,78.4040097 L80.1217625,78.4040097 Z M75.704568,119.827618 C75.409136,119.883225 75.1211519,119.927711 74.82572,119.949954 C74.5278054,119.983318 74.2423039,120 73.9692155,120 C73.0307845,120 72.3207547,119.810936 71.8416087,119.44949 C71.3699106,119.079703 71.1315789,118.540315 71.1315789,117.825765 C71.1315789,117.39203 71.2358491,116.977757 71.4568024,116.588508 C71.6703078,116.190918 71.9657398,115.871177 72.3505462,115.618165 C71.9235353,115.50139 71.5958292,115.306766 71.3599801,115.02595 C71.1166832,114.756256 71,114.408712 71,114.011121 C71,113.658017 71.1017875,113.304912 71.3103277,112.97683 C71.5163853,112.640408 71.8043694,112.334569 72.1668322,112.064875 C72.5268123,111.795181 72.9563059,111.572753 73.4428997,111.386469 C73.9319762,111.194625 74.4632572,111.063948 75.0317776,111 L74.7288977,112.598703 C74.3962264,112.65709 74.0784508,112.73772 73.775571,112.837813 C73.4726912,112.932345 73.2070506,113.04912 72.9935452,113.179796 C72.7725919,113.313253 72.5938431,113.44393 72.4597815,113.588508 C72.3356504,113.738647 72.2686197,113.880445 72.2686197,114.027804 C72.2686197,114.250232 72.4250248,114.419833 72.7279047,114.55051 C73.0307845,114.675626 73.4428997,114.742354 73.9816286,114.742354 C74.1529295,114.742354 74.3093347,114.742354 74.4334657,114.731233 C74.5675273,114.731233 74.6618669,114.714551 74.7214499,114.697868 L74.5873883,116.093605 C73.887289,116.190918 73.3560079,116.36608 72.9786495,116.60797 C72.601291,116.863763 72.4101291,117.169601 72.4101291,117.536608 C72.4101291,117.800741 72.5640516,118.006487 72.8743793,118.153846 C73.1797418,118.303985 73.6216485,118.367933 74.2050645,118.367933 C74.490566,118.367933 74.8033764,118.348471 75.1285998,118.317887 C75.4538232,118.284523 75.7418073,118.242817 76,118.18443 L75.704568,119.827618 Z M82.8243902,112.833803 C82.5487805,112.8 82.2804878,112.769014 82.0121951,112.752113 C81.7365854,112.726761 81.4682927,112.721127 81.1926829,112.721127 C80.6560976,112.721127 80.1609756,112.752113 79.7341463,112.808451 C79.8219512,113.23662 79.9073171,113.684507 79.9878049,114.15493 C80.0585366,114.630986 80.1243902,115.107042 80.1756098,115.585915 C80.2268293,116.070423 80.2707317,116.543662 80.3,117.016901 C80.3292683,117.492958 80.3439024,117.932394 80.3439024,118.343662 C80.3439024,118.943662 80.3146341,119.492958 80.2634146,120 L79.1317073,120 C79.1097561,118.605634 78.9926829,117.2 78.804878,115.769014 C78.6097561,114.338028 78.3414634,113.002817 78,111.746479 L78.9146341,111.188732 C79.2609756,111.123944 79.6170732,111.073239 79.9731707,111.047887 C80.3292683,111.016901 80.6926829,111 81.0536585,111 C81.3731707,111 81.7073171,111.016901 82.0414634,111.047887 C82.3756098,111.073239 82.695122,111.115493 83,111.16338 L82.8243902,112.833803 Z M90.5793958,113.029163 C90.4144074,113.619003 90.2401239,114.287865 90.0472502,115.01317 C89.8613478,115.74412 89.6591789,116.537159 89.4453912,117.375353 C89.2316034,118.219191 89.0108443,119.091251 88.7970565,120 L87.6560806,120 C87.4353215,119.167451 87.2192099,118.385701 87.0123935,117.646284 C86.796282,116.904045 86.5917893,116.195673 86.3756778,115.501411 C86.16189,114.818438 85.9411309,114.143932 85.7134005,113.494826 C85.4833462,112.848542 85.2486445,112.190969 85,111.522107 L86.3547637,111 C86.4941905,111.386642 86.6452363,111.84666 86.8125484,112.380056 C86.9775368,112.913452 87.144849,113.463782 87.3168087,114.056444 C87.4817971,114.637817 87.6491092,115.23048 87.8140976,115.828786 C87.9744384,116.429915 88.1185128,116.985889 88.2486445,117.510818 C88.464756,116.379116 88.6994578,115.267168 88.9411309,114.197554 C89.182804,113.130762 89.4314485,112.058325 89.6940356,111 L91,111.522107 C90.8768397,111.931326 90.7397366,112.433678 90.5793958,113.029163 L90.5793958,113.029163 Z M114.965476,108.889466 C112.912644,111.09612 110.679226,113.139029 108.29178,115 L108.29178,106.568451 L94.4371544,106.57365 L94.4371544,83.3115165 C94.4371544,74.1704078 86.8100728,66.7603138 77.3877589,66.7603138 L67.4050989,66.7603138 C57.990752,66.7603138 50.3557034,74.1704078 50.3557034,83.3115165 L50.3557034,106.57365 L36.644484,106.568451 L36.644484,114.576343 C34.2809385,112.69458 32.0767332,110.633477 30.0557691,108.411228 C30.0265567,106.386513 30.0106227,103.205189 30,100.12523 L43.7483988,100.12523 L43.5917143,81.154246 C43.5917143,69.5075847 53.7629269,60 66.2631612,60 L78.3836348,60 C90.8785578,60 101.047115,69.5075847 101.047115,81.1906337 L101.047115,100.12523 L115,100.12523 C114.989377,103.288361 114.976099,106.95832 114.965476,108.889466 L114.965476,108.889466 Z M114.984062,94.6306508 C114.978765,94.7848845 114.973469,95.6969909 114.968173,97 L104.759648,97 L104.759648,81.063401 C104.759648,68.5624913 95.3614505,58.1862841 83,56.1041288 C85.7778838,52.0754374 88.9053202,48.270119 92.379661,44.7360392 C93.9976658,43.0820154 95.6792256,41.4997901 97.4058035,40 C109.160833,55.4978307 115.357447,74.6015395 114.984062,94.6306508 L114.984062,94.6306508 Z M130.986696,71.6412417 C130.760532,84.1744627 126.450111,95.7121787 119.329933,105 C119.345898,100.417474 119.361863,94.3056609 119.369845,93.8786346 C119.77694,72.441916 112.856319,52.6412417 101,37.054783 C104.754324,34.0309032 108.726829,31.3806714 112.866962,29.0987498 C112.925499,29.0640539 112.984035,29.0293581 113.042572,29 C124.098004,39.3527181 131,54.0477595 131,70.3521562 L131,70.5950274 C131,70.949993 131,71.2942829 130.986696,71.6412417 L130.986696,71.6412417 Z" id="logo-white" fill="#FFFFFF"></path>
            </g>
        </g>
    </g>
</svg>